<svg xmlns="http://www.w3.org/2000/svg" viewBox="0 0 512 512" width="512" height="512">
  <circle cx="256" cy="256" r="200" fill="#6c89ed" stroke="#000" stroke-width="24"/>
  <circle cx="256" cy="256" r="140" fill="white" stroke="#000" stroke-width="20"/>
  <circle cx="256" cy="222" r="10" fill="#000"/>
  <path d="M256 140 
           A 116 116 0 0 1 372 256
           A 116 116 0 0 1 256 372
           A 116 116 0 0 1 140 256
           A 116 116 0 0 1 256 140 Z" 
        fill="none" stroke="#000" stroke-width="20"/>
  <text x="256" y="286" text-anchor="middle" font-family="Arial, sans-serif" font-weight="bold" font-size="48">VOCA</text>
  <text x="256" y="336" text-anchor="middle" font-family="Arial, sans-serif" font-weight="bold" font-size="48">HTTP</text>
  <!-- Connector lines -->
  <line x1="10" y1="256" x2="100" y2="256" stroke="#000" stroke-width="20"/>
  <line x1="412" y1="256" x2="502" y2="256" stroke="#000" stroke-width="20"/>
  <line x1="256" y1="10" x2="256" y2="100" stroke="#000" stroke-width="20"/>
  <line x1="256" y1="412" x2="256" y2="502" stroke="#000" stroke-width="20"/>
  <!-- Connector circles -->
  <circle cx="50" cy="50" r="25" fill="#ff6347" stroke="#000" stroke-width="12"/>
  <circle cx="462" cy="50" r="25" fill="#90ee90" stroke="#000" stroke-width="12"/>
  <circle cx="50" cy="462" r="25" fill="#87ceeb" stroke="#000" stroke-width="12"/>
  <circle cx="462" cy="462" r="25" fill="#ffd700" stroke="#000" stroke-width="12"/>
</svg> 